<?xml version="1.0" encoding="utf-8"?>
<!-- Generator: Adobe Illustrator 24.1.2, SVG Export Plug-In . SVG Version: 6.00 Build 0)  -->
<svg version="1.1" id="Warstwa_3" xmlns="http://www.w3.org/2000/svg" xmlns:xlink="http://www.w3.org/1999/xlink" x="0px" y="0px"
	 viewBox="0 0 430 430" style="enable-background:new 0 0 430 430;" xml:space="preserve">
<style type="text/css">
	.st0{fill:#121331;}
	.st1{fill:#08a88a;}
	.st2{fill:none;stroke:#08a88a;stroke-width:12.25;stroke-miterlimit:14;}
	.st3{fill-opacity:0;}
	.st4{fill:#131432;}
	.st5{fill:none;}
</style>
<g>
	<path class="st0" d="M368.35,367.33H61.19c-1.65,0-3.23-0.67-4.38-1.86c-1.15-1.19-1.77-2.79-1.71-4.44l0.46-14.31
		c0.06-57.19,46.6-103.71,103.81-103.71H271.1c57.24,0,103.81,46.57,103.81,103.81c0,0.06,0,0.13,0,0.19l-0.46,14.41
		C374.34,364.72,371.64,367.33,368.35,367.33z M67.49,355.14h294.96l0.27-8.4c-0.05-50.47-41.13-91.52-91.61-91.52H159.36
		c-50.52,0-91.61,41.1-91.61,91.61c0,0.06,0,0.13,0,0.19L67.49,355.14z"/>
	<path class="st1" d="M215.23,216.33c-42.36,0-76.83-34.47-76.83-76.83s34.47-76.83,76.83-76.83c22.76,0,44.21,10,58.86,27.45
		c11.59,13.79,17.97,31.33,17.97,49.38C292.06,181.86,257.6,216.33,215.23,216.33z M215.23,74.86c-35.64,0-64.63,28.99-64.63,64.63
		s28.99,64.63,64.63,64.63s64.63-28.99,64.63-64.63c0-15.19-5.37-29.94-15.11-41.54v0C252.43,83.28,234.38,74.86,215.23,74.86z"/>
</g>
</svg>
